<svg width="71" height="71" viewBox="0 0 71 71" fill="none" xmlns="http://www.w3.org/2000/svg">
<rect x="11.041" y="0.475586" width="60" height="60" rx="30" transform="rotate(10.1413 11.041 0.475586)" fill="#FEED00"/>
<path d="M41.5036 30.2562C41.7626 30.3025 41.869 30.4551 41.8227 30.7139L38.2468 50.7057C38.2063 50.9321 38.0565 51.0222 37.7974 50.9759L27.5003 49.134C27.2413 49.0877 27.132 48.9513 27.1725 48.7248L30.7485 28.733C30.7948 28.4742 30.9474 28.368 31.2065 28.4143L41.5036 30.2562ZM42.13 28.7157C42.1624 28.7215 42.1815 28.7082 42.1872 28.6759L43.4596 21.5626C43.433 21.5244 43.4197 21.5054 43.4197 21.5054L32.4426 19.5419C32.4102 19.5361 32.3911 19.5494 32.3854 19.5817L31.113 26.695C31.1072 26.7274 31.1205 26.7464 31.1529 26.7522L42.13 28.7157Z" fill="#0D0505"/>
</svg>
