<svg width="143" height="37" viewBox="0 0 143 37" fill="none" xmlns="http://www.w3.org/2000/svg">
<path d="M14.2852 11.2559L24.061 27.6173H4.50939L14.2852 11.2559Z" fill="#F4F2EB"/>
<path d="M30.5195 19.625L22.5012 6.40269L38.5379 6.40269L30.5195 19.625Z" fill="#F4F2EB"/>
<path d="M127.144 17.988C127.144 16.4748 127.485 15.1427 128.167 13.9919C128.87 12.841 129.818 11.9458 131.012 11.3065C132.205 10.6458 133.559 10.3154 135.072 10.3154C136.585 10.3154 137.928 10.6458 139.1 11.3065C140.293 11.9458 141.242 12.841 141.945 13.9919C142.648 15.1427 143 16.4748 143 17.988C143 19.4799 142.648 20.8119 141.945 21.9841C141.242 23.135 140.293 24.0408 139.1 24.7015C137.928 25.3408 136.585 25.6605 135.072 25.6605C133.559 25.6605 132.205 25.3408 131.012 24.7015C129.818 24.0408 128.87 23.135 128.167 21.9841C127.485 20.8119 127.144 19.4799 127.144 17.988ZM130.692 17.988C130.692 18.9044 130.884 19.7143 131.268 20.4176C131.651 21.0996 132.173 21.6431 132.834 22.048C133.495 22.4317 134.241 22.6235 135.072 22.6235C135.882 22.6235 136.617 22.4317 137.278 22.048C137.96 21.6431 138.493 21.0996 138.876 20.4176C139.26 19.7143 139.452 18.9044 139.452 17.988C139.452 17.0715 139.26 16.2617 138.876 15.5583C138.493 14.855 137.96 14.3115 137.278 13.9279C136.617 13.5443 135.882 13.3525 135.072 13.3525C134.241 13.3525 133.495 13.5443 132.834 13.9279C132.173 14.3115 131.651 14.855 131.268 15.5583C130.884 16.2617 130.692 17.0715 130.692 17.988Z" fill="#F4F2EB"/>
<path d="M111.317 10.6367H115.09L118.926 20.1315L122.762 10.6367H126.567L118.926 26.6851L111.317 10.6367Z" fill="#F4F2EB"/>
<path d="M94.8921 17.988C94.8921 16.4748 95.2331 15.1427 95.9151 13.9919C96.6184 12.841 97.5668 11.9458 98.7603 11.3065C99.9538 10.6458 101.307 10.3154 102.82 10.3154C104.334 10.3154 105.676 10.6458 106.848 11.3065C108.042 11.9458 108.99 12.841 109.694 13.9919C110.397 15.1427 110.749 16.4748 110.749 17.988C110.749 19.4799 110.397 20.8119 109.694 21.9841C108.99 23.135 108.042 24.0408 106.848 24.7015C105.676 25.3408 104.334 25.6605 102.82 25.6605C101.307 25.6605 99.9538 25.3408 98.7603 24.7015C97.5668 24.0408 96.6184 23.135 95.9151 21.9841C95.2331 20.8119 94.8921 19.4799 94.8921 17.988ZM98.4406 17.988C98.4406 18.9044 98.6325 19.7143 99.0161 20.4176C99.3997 21.0996 99.9219 21.6431 100.583 22.048C101.243 22.4317 101.989 22.6235 102.82 22.6235C103.63 22.6235 104.366 22.4317 105.026 22.048C105.708 21.6431 106.241 21.0996 106.625 20.4176C107.008 19.7143 107.2 18.9044 107.2 17.988C107.2 17.0715 107.008 16.2617 106.625 15.5583C106.241 14.855 105.708 14.3115 105.026 13.9279C104.366 13.5443 103.63 13.3525 102.82 13.3525C101.989 13.3525 101.243 13.5443 100.583 13.9279C99.9219 14.3115 99.3997 14.855 99.0161 15.5583C98.6325 16.2617 98.4406 17.0715 98.4406 17.988Z" fill="#F4F2EB"/>
<path d="M88.0536 16.3895C88.0536 15.3026 87.8298 14.482 87.3823 13.9279C86.9347 13.3738 86.2421 13.0967 85.3043 13.0967C84.6649 13.0967 84.1001 13.2353 83.6099 13.5123C83.1198 13.7681 82.7361 14.1517 82.4591 14.6632C82.182 15.1534 82.0435 15.7288 82.0435 16.3895V25.3408H78.5908V10.6351H82.0435V12.9049C82.5123 12.0311 83.1091 11.3811 83.8337 10.9548C84.5797 10.5286 85.4641 10.3154 86.4872 10.3154C88.1495 10.3154 89.4176 10.8269 90.2915 11.8499C91.1653 12.8516 91.6022 14.237 91.6022 16.0059V25.3408H88.0536V16.3895Z" fill="#F4F2EB"/>
<path d="M65.7006 20.5135C66.1694 21.025 66.6383 21.4726 67.1072 21.8562C67.5974 22.2185 68.0876 22.4956 68.5778 22.6874C69.068 22.8579 69.5582 22.9432 70.0483 22.9432C70.6664 22.9432 71.1459 22.8046 71.4869 22.5276C71.8493 22.2505 72.0304 21.8669 72.0304 21.3767C72.0304 20.9504 71.8919 20.5881 71.6148 20.2897C71.3378 19.9701 70.9541 19.7036 70.4639 19.4905C69.9737 19.2561 69.3983 19.0216 68.7376 18.7872C68.0769 18.5315 67.4162 18.2331 66.7555 17.8921C66.1162 17.5298 65.5833 17.0609 65.1571 16.4854C64.7522 15.91 64.5497 15.1854 64.5497 14.3115C64.5497 13.4164 64.7735 12.6705 65.221 12.0737C65.6899 11.477 66.308 11.0401 67.0752 10.763C67.8638 10.4646 68.7056 10.3154 69.6008 10.3154C70.4107 10.3154 71.1673 10.4326 71.8706 10.6671C72.5952 10.9015 73.2452 11.2106 73.8207 11.5942C74.3961 11.9778 74.8863 12.4147 75.2913 12.9049L73.3731 14.9509C72.8829 14.3755 72.2968 13.9066 71.6148 13.5443C70.9328 13.182 70.2295 13.0008 69.5049 13.0008C69.0147 13.0008 68.6097 13.1074 68.2901 13.3205C67.9704 13.5336 67.8105 13.8427 67.8105 14.2476C67.8105 14.5886 67.9491 14.8976 68.2261 15.1747C68.5245 15.4305 68.9081 15.6649 69.377 15.878C69.8672 16.0912 70.4107 16.3149 71.0074 16.5494C71.8173 16.8691 72.5632 17.2207 73.2452 17.6044C73.9272 17.988 74.4707 18.4569 74.8757 19.011C75.3019 19.5651 75.515 20.2897 75.515 21.1849C75.515 22.5702 75.0355 23.6891 74.0764 24.5416C73.1387 25.3728 71.8599 25.7884 70.2402 25.7884C69.2385 25.7884 68.3114 25.6392 67.4589 25.3408C66.6277 25.0211 65.8924 24.6162 65.253 24.126C64.6349 23.6145 64.1128 23.0817 63.6865 22.5276L65.7006 20.5135Z" fill="#F4F2EB"/>
<path d="M45.9028 17.988C45.9028 16.4748 46.2438 15.1427 46.9258 13.9919C47.6292 12.841 48.5776 11.9458 49.7711 11.3065C50.9646 10.6458 52.3179 10.3154 53.8311 10.3154C55.3443 10.3154 56.687 10.6458 57.8592 11.3065C59.0527 11.9458 60.0011 12.841 60.7045 13.9919C61.4078 15.1427 61.7594 16.4748 61.7594 17.988C61.7594 19.4799 61.4078 20.8119 60.7045 21.9841C60.0011 23.135 59.0527 24.0408 57.8592 24.7015C56.687 25.3408 55.3443 25.6605 53.8311 25.6605C52.3179 25.6605 50.9646 25.3408 49.7711 24.7015C48.5776 24.0408 47.6292 23.135 46.9258 21.9841C46.2438 20.8119 45.9028 19.4799 45.9028 17.988ZM49.4514 17.988C49.4514 18.9044 49.6432 19.7143 50.0268 20.4176C50.4105 21.0996 50.9326 21.6431 51.5933 22.048C52.254 22.4317 52.9999 22.6235 53.8311 22.6235C54.641 22.6235 55.3763 22.4317 56.037 22.048C56.719 21.6431 57.2518 21.0996 57.6354 20.4176C58.0191 19.7143 58.2109 18.9044 58.2109 17.988C58.2109 17.0715 58.0191 16.2617 57.6354 15.5583C57.2518 14.855 56.719 14.3115 56.037 13.9279C55.3763 13.5443 54.641 13.3525 53.8311 13.3525C52.9999 13.3525 52.254 13.5443 51.5933 13.9279C50.9326 14.3115 50.4105 14.855 50.0268 15.5583C49.6432 16.2617 49.4514 17.0715 49.4514 17.988Z" fill="#F4F2EB"/>
</svg>
